<?xml version="1.0" encoding="UTF-8" standalone="no"?>
<svg
   xmlns:dc="http://purl.org/dc/elements/1.1/"
   xmlns:cc="http://creativecommons.org/ns#"
   xmlns:rdf="http://www.w3.org/1999/02/22-rdf-syntax-ns#"
   xmlns:svg="http://www.w3.org/2000/svg"
   xmlns="http://www.w3.org/2000/svg"
   xmlns:sodipodi="http://sodipodi.sourceforge.net/DTD/sodipodi-0.dtd"
   xmlns:inkscape="http://www.inkscape.org/namespaces/inkscape"
   height="100px"
   width="100px"
   fill="#ea5324"
   version="1.1"
   x="0px"
   y="0px"
   viewBox="0 0 100 100"
   enable-background="new 0 0 100 100"
   xml:space="preserve"
   id="svg835"
   sodipodi:docname="noun_SEO_1321198.svg"
   inkscape:version="1.0beta1 (32d4812, 2019-09-19)"
   inkscape:export-filename="/Users/nathan/Downloads/algotracker-logo.png"
   inkscape:export-xdpi="260.85001"
   inkscape:export-ydpi="260.85001">
  <metadata
   id="metadata841">
    <rdf:RDF>
      <cc:Work
   rdf:about="">
        <dc:format>image/svg+xml</dc:format>

        <dc:type
   rdf:resource="http://purl.org/dc/dcmitype/StillImage" />

      </cc:Work>

    </rdf:RDF>

  </metadata>

  <defs
   id="defs839" />

  <sodipodi:namedview
   pagecolor="#ffffff"
   bordercolor="#666666"
   inkscape:document-rotation="0"
   borderopacity="1"
   objecttolerance="10"
   gridtolerance="10"
   guidetolerance="10"
   inkscape:pageopacity="0"
   inkscape:pageshadow="2"
   inkscape:window-width="1600"
   inkscape:window-height="882"
   id="namedview837"
   showgrid="false"
   inkscape:zoom="2.8"
   inkscape:cx="27.142857"
   inkscape:cy="42.857143"
   inkscape:window-x="58"
   inkscape:window-y="87"
   inkscape:window-maximized="0"
   inkscape:current-layer="svg835" />

  <path
   id="path833-3"
   d="m 23.027171,21.621762 c 0.467,-0.199 -1.53268,0.372687 -1.53268,0.372687 0.967,0.434 3.26242,3.356285 5.01428,4.125 0.566,0.6 2.17143,0.810714 2.67143,0.810714 0.5,0 1.067,-0.333 1.7,-1 1.733,-1.7 3.351,-2 4.851,-0.9 1.3,0.934 3.166,2.45 5.6,4.55 0.5,0.4 0.75,0.783 0.75,1.15 0.033,0.433 -0.167,0.816 -0.6,1.15 -0.934,0.667 -1.434,1.467 -1.5,2.4 0,0.6 0.283,1.483 0.85,2.65 0.6,1.1 0.934,2.417 1,3.95 0.1,1.367 0.917,2.15 2.45,2.35 1.233,0.133 2.050003,0.433 2.450003,0.9 0.433,0.5 0.6,1.4 0.5,2.7 -0.101,1.366 -0.317,3.417 -0.65,6.15 -0.133,1.2 -0.850003,1.75 -2.150003,1.65 -1,-0.066 -1.716,0.15 -2.149,0.65 -0.434,0.434 -0.65,1.199 -0.65,2.3 0,1.267 -0.55,2.399 -0.55,2.399 0,0 -3.52287,1.329171 2.36229,-0.03471 0.1,-1.533 0.78571,-1.931286 0.98471,-2.264286 0.233,-0.267 0.95,-0.5 2.150003,-0.7 0.9,-0.199 1.517,-0.383 1.85,-0.55 0.601,-0.333 0.867,-0.866 0.801,-1.6 -0.134,-1.233 -0.067,-2.984 0.199,-5.25 0.301,-2.467 0.434,-4.233 0.4,-5.3 -0.066,-1.467 -0.767,-2.3 -2.1,-2.5 -1.533,-0.1 -2.450003,-0.45 -2.750003,-1.05 -1.101,-2.3 -1.667,-3.567 -1.7,-3.8 -0.434,-1.433 -0.101,-2.783 1,-4.05 0.3,-0.367 0.533,-0.883 0.7,-1.55 0.399,-1 0.233,-1.717 -0.5,-2.15 -1.134,-0.667 -2.567,-1.716 -4.301,-3.15 -2,-1.667 -3.35,-2.767 -4.05,-3.3 -2.1,-1.4 -3.85,-1.233 -5.25,0.5 -1.133,1.2 -2.35,1.316 -3.649,0.35 -0.834,-0.367 -3.30357,-3.214286 -3.30357,-3.214286 m 10.10657,38.612286 c -0.134,-0.232 -0.066,-0.949 0.2,-2.149 l 1,-3.95 c 0.767,-4 0.133,-7.717 -1.9,-11.15 -2.1,-3.5 -5.133,-5.767 -9.1,-6.8 -0.934,-0.433 -1.634,-0.733 -2.101,-0.9 -0.8,-0.233 -1.366,0.034 -1.7,0.8 -0.199,0.633 0.867,1.233 3.2,1.8 3.533,1.033 6.134,3.25 7.8,6.65 1.067,2.1 1.551,4.45 1.45,7.05 -0.1,1.7 -0.99643,5.105429 -1.79643,8.071429 -0.233,0.767 2.94743,0.577571 2.94743,0.577571 m -8.702,15.853 c -1.667,-0.134 -2.616,0.75 -2.85,2.649 -0.101,1.767 -0.117,2.917 -0.051,3.45 0.167,0.967 0.518,1.5 1.051,1.601 1.066,0.233 1.933,0.949 2.6,2.149 0.867,1.601 1.434,2.55 1.7,2.851 0.333,0.3 0.333,0.949 0,1.949 -0.033,0.067 -0.2,0.301 -0.5,0.7 -0.233,0.334 -0.333,0.566 -0.3,0.7 0.199,1.6 1.233,2.75 3.1,3.45 0.533,0.2 1.316,0.649 2.35,1.35 0.967,0.5 1.817,0.334 2.551,-0.5 0.8,-0.833 2.017,-1.217 3.649,-1.149 2,0.199 3.601,0.133 4.8,-0.2 0.967,-0.233 1.9,-0.033 2.801003,0.6 0.899,0.601 1.833,0.684 2.8,0.25 1.033,-0.7 1.816,-1.217 2.35,-1.55 1.5,-0.934 1.817,-2.2 0.95,-3.8 -0.434,-0.834 -0.55,-1.367 -0.35,-1.601 0.366,-0.433 0.933,-1.533 1.699,-3.3 0.667,-1.434 1.45,-2.416 2.351,-2.95 1.1,-0.6 1.583,-1.55 1.45,-2.85 -0.101,-0.634 -0.317,-1.366 -0.65,-2.2 -0.566,-1.3 -0.883,-2.05 -0.95,-2.25 -0.133,-0.434 -0.883,-0.767 -2.25,-1 -1.366,-0.267 -2.283,-0.283 -2.75,-0.05 -0.2,0.167 -0.3,0.35 -0.3,0.55 -0.033,0.101 -0.033,0.217 0,0.351 0.1,0.166 0.184,0.25 0.25,0.25 l 1.65,0.25 c 1.666,0.333 2.6,1.433 2.8,3.3 0.133,0.833 -0.017,1.416 -0.45,1.75 -0.333,0.267 -0.9,0.483 -1.7,0.649 -1.5,0.167 -1.967,0.884 -1.399,2.15 0.3,0.566 0.233,1.083 -0.2,1.55 -0.2,0.3 -0.583,0.684 -1.15,1.15 -0.2,-3.634 -0.583,-6.217 -1.149,-7.75 -0.634,-1.601 -1.684,-2.667 -3.15,-3.2 -0.233003,0.333 -0.283003,0.667 -0.15,1 0.067,0.1 0.233,0.384 0.5,0.85 0.834,1.134 1.417,2.733 1.75,4.801 0.5,3.066 -0.649,5.149 -3.449003,6.25 -3.367,1.366 -6.983,0.949 -10.851,-1.25 -1.233,-0.7 -2,-1.817 -2.3,-3.351 -0.267,-1.467 -0.066,-3 0.6,-4.6 0.434,-0.601 0.717,-1.05 0.851,-1.351 0.3,-0.533 0.149,-0.933 -0.45,-1.199 -0.8,-0.434 -1.583,0.183 -2.35,1.85 -1.067,2.233 -1.067,4.55 0,6.95 1.199,2.533 3.283,4.184 6.25,4.95 4.833,1.233 8.767,0.699 11.800003,-1.601 l 1.1,1.4 c 1,1.366 1.067,2.383 0.2,3.05 -1.233,1.1 -2.5,1.184 -3.800003,0.25 -0.267,-0.333 -0.483,-0.6 -0.65,-0.8 -0.267,-0.3 -0.6,-0.467 -1,-0.5 -2.133,2.1 -4.45,2.233 -6.95,0.399 -1,-0.733 -1.732,-0.533 -2.199,0.601 -0.601,1.533 -1.801,1.934 -3.601,1.2 -1.733,-0.7 -2.166,-1.934 -1.3,-3.7 0.333,-0.733 0.434,-1.334 0.3,-1.8 -0.133,-0.4 -0.5,-0.851 -1.1,-1.351 -0.833,-0.733 -1.25,-1.233 -1.25,-1.5 0.066,-1.1 -0.134,-1.967 -0.601,-2.6 -0.433,-0.566 -1.199,-1 -2.3,-1.3 -0.533,-0.134 -0.816,-0.45 -0.85,-0.95 0,-0.4 0.116,-0.851 0.35,-1.351 0.2,-0.6 0.351,-1.033 0.45,-1.3 0.233,-0.467 0.617,-0.649 1.15,-0.55 0.267,0.033 0.699,0.15 1.3,0.35 0.5,0.134 0.917,0.067 1.25,-0.199 0.399,-0.334 0.667,-0.817 0.8,-1.45 0.134,-0.767 0.25,-1.316 0.35,-1.65 -0.566,-0.566 -1.066,-0.566 -1.5,0 -0.702,0.869 -1.736,1.252 -3.103,1.153 z m 15.5,4.799 c 0.733,0.4 0.9,0.833 0.5,1.3 -0.5,0.634 -1,0.783 -1.5,0.45 -0.866,-0.733 -1.55,-1.316 -2.05,-1.75 -0.434,2.434 0.467,3.733 2.7,3.9 0.733,0.033 1.449,-0.267 2.149,-0.9 0.733,-0.667 1.117,-1.333 1.15,-2 0.1,-1.7 -1.267,-2.467 -4.101,-2.3 0,0.5 0.15,0.833 0.45,1 0.136,0.1 0.369,0.201 0.702,0.3 z m 53.750002,-38.75 c -1.733,-0.167 -3.082999,-0.967 -4.049999,-2.4 -0.2,-0.333 -0.917,-0.883 -2.15,-1.65 -1.333,-0.6 -1.8,-1.483 -1.399,-2.65 0.166,-0.566 0.083,-1.033 -0.25,-1.4 -0.334,-0.367 -0.834,-0.566 -1.5,-0.6 h -4.45 c -1.566,0 -2.233,0.7 -2,2.1 0.133,0.667 0.066,1.133 -0.2,1.4 -0.3,0.233 -0.783,0.35 -1.45,0.35 -0.633,0 -1.066,0.05 -1.3,0.15 -0.467,0.167 -0.866,0.5 -1.2,1 0.767,0.267 1.7,0.367 2.8,0.3 1.434,-0.033 2.317,-0.033 2.65,0 0.467,0.066 0.7,-0.233 0.7,-0.9 0,-0.867 0.05,-1.417 0.149,-1.65 0.434,-1.2 1.268,-1.616 2.5,-1.25 1.268,0.3 1.717,0.95 1.351,1.95 -0.233,0.8 -0.3,1.367 -0.2,1.7 0.134,0.533 0.566,0.816 1.3,0.85 2.067,0 3.483,1.1 4.25,3.3 0.367,1.2 1.134,1.566 2.299999,1.1 1.334,-0.534 2.084,0.117 2.25,1.95 0.101,1.434 0.084,2.333 -0.05,2.699 -0.2,0.334 -0.75,0.667 -1.649,1 -0.899999,0.301 -1.399999,0.066 -1.499999,-0.699 -0.067,-0.734 -0.283,-1.5 -0.65,-2.301 -0.533,-0.899 -0.934,-1.6 -1.2,-2.1 -1.399,-2.433 -3.149,-3.867 -5.25,-4.3 -1.833,-0.434 -4.133,-0.167 -6.899,0.8 -0.434,0.1 -0.617,0.333 -0.551,0.7 0.134,0.4 0.483,0.6 1.051,0.6 l 0.35,-0.05 c 2.967,-1.1 5.417,-1.017 7.35,0.25 1.467,1.067 2.733,3.033 3.801,5.9 0.467,1.3 0.433,2.516 -0.101,3.649 -0.5,1.134 -1.399,1.967 -2.7,2.5 -1.3,0.567 -2.816,1.017 -4.55,1.351 -3.333,0.6 -5.783,-0.634 -7.35,-3.701 -0.434,-0.967 -0.7,-1.467 -0.8,-1.5 -0.334,-0.434 -0.817,-0.434 -1.45,0 -0.934,0.6 -0.851,1.6 0.25,3 2.033,2.734 4.866,4.167 8.5,4.3 3.633,0.2 6.649,-0.967 9.05,-3.5 0.233,-0.233 0.517,-0.784 0.85,-1.651 0.233,-0.766 0.65,-1.316 1.249999,-1.649 0.067,1.866 -0.465999,3.35 -1.599999,4.451 -0.9,0.833 -1.017,1.8 -0.35,2.899 0.133,0.267 0.366,0.65 0.699,1.15 0.2,0.5 0.034,0.884 -0.5,1.149 -0.866,0.533 -1.517,0.851 -1.949,0.95 -0.767,0.2 -1.351,-0.017 -1.75,-0.649 -0.7,-0.867 -1.334,-1.367 -1.9,-1.5 -0.667,-0.2 -1.434,0.016 -2.3,0.649 -0.267,0.233 -0.684,0.233 -1.25,0 -1.066,-0.566 -2.367,-0.466 -3.9,0.3 -1.1,0.5 -2,0.5 -2.7,0 -0.732,-0.6 -1.033,-1.516 -0.899,-2.75 0.1,-0.766 -0.117,-1.416 -0.65,-1.949 -0.767,-0.5 -1.333,-0.95 -1.7,-1.351 -0.3,0.733 -0.316,1.733 -0.05,3 0.167,1.267 0.167,2.184 0,2.75 -0.166,0.233 -0.1,0.417 0.2,0.55 2.2,1.167 4.033,2.051 5.5,2.65 0.634,0.3 1.35,0.084 2.15,-0.65 0.6,-0.467 1.399,-0.717 2.399,-0.75 1.434,-0.1 2.283,-0.199 2.55,-0.3 0.4,-0.1 0.717,0.05 0.95,0.45 0.2,0.166 0.417,0.517 0.65,1.05 0.667,1.067 1.55,1.3 2.649,0.7 l 3,-1.55 c 1.100999,-0.634 1.699999,-1.083 1.800999,-1.351 0.133,-0.333 -0.033,-1.133 -0.5,-2.399 -0.334,-0.934 -0.351,-1.7 -0.051,-2.3 0.567,-1.467 0.983,-2.567 1.25,-3.301 0.534,-1.232 1.284,-2.133 2.25,-2.699 0.2,-0.033 0.367,-0.2 0.5,-0.5 0.2,-0.234 0.268,-0.434 0.2,-0.601 -0.233,-0.733 -0.399,-1.733 -0.5,-3 -0.033,-1.333 -0.1,-2.333 -0.2,-3 -0.069,-0.696 -0.685,-1.046 -1.852,-1.046 z m -11.199999,4.85 c -0.566,-0.232 -1.6,-0.184 -3.1,0.15 l 1.45,1 c 0.467,0.467 0.566,0.85 0.3,1.15 -0.167,0.232 -0.434,0.399 -0.8,0.5 -0.434,0 -0.75,-0.101 -0.95,-0.301 -1.033,-0.6 -1.7,-0.55 -2,0.15 -0.333,0.8 0.149,1.467 1.45,2 0.5,0.233 1.283,0.267 2.35,0.1 1.8,-0.399 2.583,-1.482 2.35,-3.25 -0.133,-0.799 -0.483,-1.299 -1.05,-1.499 z"
   clip-rule="evenodd"
   fill-rule="evenodd"
   inkscape:connector-curvature="0"
   sodipodi:nodetypes="cccsccccccccccccccsccccccccccccccccccccccccccccccccccccccccccccccccccccccccccccccccccccccccccccccccccccccccccccccccccccccccccccccccccccccccccsccsccccsccccccccccccccccccccccccccccccccccccccccccccccccccccccccccccccccccccccccccccc"
   style="fill:#4d4d4d" />

  <path
   sodipodi:nodetypes="cccccccccccccccccccccccccccccccccccccccccccccccccccccccccccccccccccccscccccccccccccccccccccccccccccccccccccccccccccccccccccccccccccccccccccccccccccccccccccccccccccccccccccccccccccccccccccc"
   inkscape:connector-curvature="0"
   id="path833-30"
   d="m 22.678171,11.321762 c 0.4,0.8 1.184,0.817 2.351,0.05 1.366,-0.833 3.533,-1.5499996 6.5,-2.1499996 9.533,-1.9 18.316,0.017 26.35,5.7499996 4.267,3.1 7.066,7.05 8.399998,11.85 2.767,10.5 1.717,19.75 -3.149998,27.75 -0.128,0.211 -0.253,0.419 -0.375,0.625 -0.555,-0.611 -1.13,-1.187 -1.725,-1.725 -0.167,-0.134 -0.317,-0.217 -0.45,-0.25 -0.867,0.667 -0.851,1.45 0.05,2.35 0.389,0.37 0.78,0.729 1.175,1.075 -0.887,1.301 -1.804,2.502 -2.75,3.6 -0.271,-0.452 -0.479,-0.928 -0.625,-1.425 -0.033,-0.134 -0.116,-0.216 -0.25,-0.25 -0.861,0.795 -0.97,1.786 -0.325,2.976 -0.309,0.322 -0.617,0.631 -0.925,0.925 -0.099,-0.423 -0.398,-0.79 -0.899,-1.101 -0.634,-0.434 -1.2,-0.916 -1.7,-1.449 -0.134,-0.167 -0.267,-0.268 -0.4,-0.301 -0.166,0 -0.333,0.033 -0.5,0.101 -0.2,0.066 -0.366,0.167 -0.5,0.3 -0.1,0.1 -0.166,0.217 -0.2,0.35 0.268,0.7 0.768,1.301 1.5,1.801 0.601,0.441 1.275,0.75 2.025,0.925 -1.014,0.905 -2.056,1.705 -3.125,2.399 -0.152,-0.168 -0.336,-0.327 -0.55,-0.475 -0.9,-0.633 -1.434,-1.467 -1.601,-2.5 -0.033,-0.3 -0.183,-0.467 -0.449,-0.5 -1.134,0.533 -1.117,1.434 0.05,2.7 0.476,0.493 0.941,0.985 1.399,1.475 -1.263,0.697 -2.563,1.255 -3.899,1.675 -0.414,0.131 -0.831,0.256 -1.25,0.375 0.022,-0.145 0.022,-0.287 0,-0.425 0,-0.134 -0.017,-0.267 -0.05,-0.399 -1.033,-0.334 -1.7,-1 -2,-2 -0.267,-0.801 -0.7,-1.45 -1.301,-1.95 -0.066,-0.034 -0.133,-0.067 -0.199,-0.101 -0.733,0.801 -0.7,1.834 0.1,3.101 0.573,0.889 1.307,1.58 2.2,2.075 -1.558,0.337 -3.158,0.545 -4.8,0.625 -0.159,-0.493 -0.426,-0.96 -0.801,-1.4 -0.566,-0.666 -1.1,-1.367 -1.6,-2.1 -0.167,-0.234 -0.366,-0.467 -0.6,-0.7 0,-0.134 0.017,-0.267 0.05,-0.4 0,-0.2 -0.05,-0.384 -0.15,-0.55 -0.166,-0.233 -0.35,-0.367 -0.55,-0.4 -1.033,1.134 -0.9,2.316 0.4,3.551 0.679,0.654 1.328,1.338 1.949,2.05 -2.938,0.037 -6.013,-0.321 -9.225,-1.075 -0.014,-0.449 -0.155,-0.924 -0.425,-1.425 -0.4,-0.767 -0.884,-1.5 -1.45,-2.2 -0.2,-0.2 -0.4,-0.316 -0.6,-0.35 -0.801,0.732 -0.884,1.649 -0.25,2.75 0.116,0.203 0.241,0.395 0.375,0.574 -7.041,-2.336 -12.766,-7.494 -17.176,-15.475 -1.3000004,-2.434 -2.1830004,-4.383 -2.6490004,-5.85 -0.533,-1.834 -0.684,-3.851 -0.45,-6.05 0.134,-1.467 0.517,-3.4 1.15,-5.8 2.1330004,-8.066 5.5500004,-14.283 10.2500004,-18.65 l 1.699,-1.7 c 0.534,-0.667 0.534,-1.233 0,-1.7 -0.699,-0.733 -2,-0.167 -3.899,1.7 -3.5,3.6 -6.083,7.35 -7.7500004,11.25 -2.833,6.466 -4.134,12.533 -3.9,18.2 0.067,1.732 0.817,4.133 2.25,7.199 2.8670004,6.5 7.2170004,11.817 13.0500004,15.951 3.233,2.367 7.667,3.934 13.301,4.7 3.133,0.434 6.899,0.384 11.3,-0.15 4.533,-0.5 8.083,-1.916 10.649,-4.25 0.634,-0.566 1.167,-0.85 1.601,-0.85 0.467,0 0.967,0.316 1.5,0.95 0.667,0.8 1.833,2.033 3.5,3.7 -1.101,1.166 -1.617,1.916 -1.55,2.25 0.033,0.267 0.717,0.883 2.05,1.85 1.967,1.366 3.916998,3.116 5.849998,5.25 3.867,4.1 7.634,7.532999 11.3,10.299999 0.534,0.434 1.4,1 2.601,1.7 1.169,0.842 2.419001,1.3 3.750001,1.375 0.106,0.083 0.239,0.125 0.399,0.125 0.018,-0.03 0.034,-0.063 0.051,-0.1 0.425,0.007 0.858,-0.026 1.3,-0.101 1.733,-0.333 3.366,-1.116 4.898999,-2.35 1.567,-1.4 2.117,-3.05 1.65,-4.949999 -0.566,-2.4 -1.533,-4.333 -2.899999,-5.8 -2.3,-2.601 -5.333,-5.517 -9.100001,-8.75 -4.3,-3.634 -7.5,-6.4 -9.6,-8.3 -0.867,-0.734 -1.584,-1.051 -2.15,-0.95 -0.566,0.1 -1.5,0.667 -2.8,1.7 -0.434,-0.134 -0.816,-0.384 -1.15,-0.75 -0.333,-0.434 -0.6,-0.768 -0.8,-1 -1.232998,-1.533 -1.865998,-2.566 -1.899998,-3.101 -0.066,-0.634 0.483,-1.75 1.65,-3.35 2.032998,-2.934 3.366998,-7.035 3.999998,-12.3 0.867,-7.934 0.2,-14.333 -2,-19.2 -2.199998,-4.733 -5.065998,-8.383 -8.599998,-10.95 -9,-6.3999996 -18.733,-8.3329996 -29.2,-5.7999996 -2.867,0.7 -4.8,1.367 -5.8,2 -0.233,0.167 -0.65,0.4 -1.25,0.6999996 -0.434,0.3 -0.551,0.683 -0.351,1.15 z m 13.902,48.199 c -0.7,0 -1.601,-0.184 -2.7,-0.55 -2.91334,-0.496894 -5.15329,-1.615008 -6.301,-2.15 -7.934,-4.333 -11.884,-10.367 -11.851,-18.1 0,-2.5 0.217,-4.6 0.65,-6.3 0.367,-1.733 1.134,-3.8 2.3,-6.2 0.8,-1.633 1.45,-2.534 1.95,-2.7 l 2.399,-1.899 c 1.835,-1.833 4.134,-2.967 6.901,-3.4 2.9,-0.534 7.317,-0.8 13.25,-0.8 6.134,0.133 10.684,3.383 13.65,9.75 3.833,8.2 2.917,16.534 -2.75,25.001 -2.8,4.266 -6.816,6.75 -12.05,7.449 m 1.251,-44.35 h -4.25 c -1.767,-0.1 -3.817,0.033 -6.15,0.4 -2.7,0.633 -4.733,1.067 -6.1,1.3 -6.567,1.267 -10.75,5.867 -12.551,13.8 -0.899,3.967 -0.949,8.5 -0.149,13.6 0.533,3.434 2.684,6.834 6.45,10.201 6.5,5.8 14.05,8.351 22.649,7.65 4.5,-0.434 8.283,-2.417 11.351,-5.95 6.467,-7.467 8.5,-16.101 6.1,-25.9 -0.566,-2.434 -1.65,-4.75 -3.25,-6.95 -1.2,-1.7 -2.9,-3.583 -5.1,-5.65 -1.033,-0.967 -2.467,-1.617 -4.301,-1.95 -2.1,-0.234 -3.666,-0.418 -4.699,-0.551 z m -10.601,51.701 c 0.601,0.8 1.3,1.417 2.101,1.85 0.1,0.066 0.217,0.066 0.35,0 0.367,-0.7 0.217,-1.399 -0.45,-2.1 -0.566,-0.567 -1,-1.167 -1.3,-1.8 -0.1,-0.301 -0.267,-0.467 -0.5,-0.5 -0.934,0.666 -1.001,1.515 -0.201,2.55 z m 27.825,-4.401 c 0.223,-0.329 0.397,-0.596 0.525,-0.8 0.366,-0.367 0.733,-0.65 1.1,-0.85 1.3,0.666 2.517,1.967 3.65,3.899 0.398998,0.601 0.466998,1.284 0.198998,2.05 -0.231998,0.768 -0.731998,1.384 -1.499998,1.851 -0.5,0.399 -0.966,0.434 -1.399,0.1 -0.434,-0.466 -0.767,-0.833 -1,-1.1 -0.767,-1.134 -1.4,-1.934 -1.9,-2.4 -0.465,-0.581 -0.59,-1.155 -0.375,-1.725 0.042,0.027 0.084,0.052 0.125,0.075 0.021,0.012 0.046,0.021 0.075,0.024 -0.141,-0.419 0.026,-0.777 0.5,-1.075 z m 9.174998,3.75 c 0.8,-0.966 1.367,-1.466 1.7,-1.5 0.367,-0.066 1.066,0.333 2.1,1.2 4.733,4 8.667,7.483 11.801001,10.45 2,1.866 3.767,3.8 5.3,5.8 0.934,1.167 1.399,2.467 1.399,3.9 0.029,1.168999 -0.287,2.159999 -0.949,2.974999 -0.5,-0.906 -1,-1.781 -1.5,-2.624999 -0.233,-0.4 -0.551,-0.634 -0.95,-0.7 -0.167,0 -0.333,0.017 -0.5,0.05 -0.2,0.067 -0.384,0.167 -0.55,0.301 -0.067,0.033 -0.117,0.083 -0.15,0.149 0.566,0.699999 1.066,1.482999 1.5,2.350999 0.271,0.561 0.58,1.094 0.925,1.6 -0.877,0.63 -1.818,0.955 -2.825,0.975 -0.164,-0.621 -0.514,-1.28 -1.05,-1.975 -1,-1.333 -1.967001,-2.683999 -2.899001,-4.049999 -0.167,-0.267 -0.367,-0.4 -0.601,-0.4 -0.467,1.167 -0.083,2.565999 1.15,4.199999 0.467,0.607 0.9,1.232 1.300001,1.875 -0.518001,-0.191 -1.051001,-0.449 -1.600001,-0.775 l -0.851,-0.649 c -0.709,-0.436 -1.442,-0.944 -2.2,-1.525 0,-0.742 -0.334,-1.565999 -1,-2.474999 -0.866,-1.233 -1.566,-2.634 -2.1,-4.2 -0.167,-0.434 -0.434,-0.7 -0.8,-0.8 -0.2,0 -0.384,0.017 -0.55,0.05 -0.167,0.066 -0.334,0.167 -0.5,0.3 -0.067,0.066 -0.117,0.134 -0.15,0.2 0.833,0.967 1.467,2.116 1.9,3.45 0.128,0.404 0.27,0.805 0.425,1.2 -0.94,-0.824 -1.916,-1.741 -2.925,-2.75 -0.547,-0.542 -1.08,-1.067 -1.601,-1.575 0.275,-0.533 0.275,-1.225 0,-2.075 -0.333,-0.934 -0.683,-1.917 -1.05,-2.95 -0.066,-0.2 -0.184,-0.3 -0.35,-0.3 -0.867,0.4 -1.051,1.25 -0.551,2.55 0.192,0.464 0.384,0.93 0.575,1.4 -3.011,-2.971 -5.419,-5.321 -7.224998,-7.05 0.866,-0.834 1.799998,-1.934 2.799998,-3.301 1.302,-1.767 2.153,-2.867 2.552,-3.301 z"
   clip-rule="evenodd"
   fill-rule="evenodd" />

</svg>
