<?xml version="1.0" encoding="UTF-8" standalone="no"?>
<svg
   xmlns:dc="http://purl.org/dc/elements/1.1/"
   xmlns:cc="http://creativecommons.org/ns#"
   xmlns:rdf="http://www.w3.org/1999/02/22-rdf-syntax-ns#"
   xmlns:svg="http://www.w3.org/2000/svg"
   xmlns="http://www.w3.org/2000/svg"
   xmlns:sodipodi="http://sodipodi.sourceforge.net/DTD/sodipodi-0.dtd"
   xmlns:inkscape="http://www.inkscape.org/namespaces/inkscape"
   inkscape:export-ydpi="260.85001"
   inkscape:export-xdpi="260.85001"
   inkscape:export-filename="/Users/nathan/Downloads/algotracker-logo.png"
   inkscape:version="1.0beta1 (32d4812, 2019-09-19)"
   sodipodi:docname="algotracker-logo-favicon.svg"
   id="svg835"
   xml:space="preserve"
   enable-background="new 0 0 100 100"
   viewBox="0 0 100 100"
   y="0px"
   x="0px"
   version="1.1"
   fill="#ea5324"
   width="100px"
   height="100px">
  <metadata
   id="metadata841">
    <rdf:RDF>
      <cc:Work
   rdf:about="">
        <dc:format>image/svg+xml</dc:format>


        <dc:type
   rdf:resource="http://purl.org/dc/dcmitype/StillImage" />


      <dc:title></dc:title>
</cc:Work>


    </rdf:RDF>


  </metadata>


  <defs
   id="defs839" />


  <sodipodi:namedview
   inkscape:current-layer="svg835"
   inkscape:window-maximized="0"
   inkscape:window-y="23"
   inkscape:window-x="0"
   inkscape:cy="35.762942"
   inkscape:cx="48.978361"
   inkscape:zoom="5.6"
   showgrid="false"
   id="namedview837"
   inkscape:window-height="882"
   inkscape:window-width="1600"
   inkscape:pageshadow="2"
   inkscape:pageopacity="0"
   guidetolerance="10"
   gridtolerance="10"
   objecttolerance="10"
   borderopacity="1"
   inkscape:document-rotation="0"
   bordercolor="#666666"
   pagecolor="#ffffff" />


  <path
   style="fill:#4d4d4d"
   sodipodi:nodetypes="cccsccccccccccccccsccccccccccccccccccccccccccccccc"
   inkscape:connector-curvature="0"
   fill-rule="evenodd"
   clip-rule="evenodd"
   d="m 23.027171,21.621762 c 0.467,-0.199 -1.53268,0.372687 -1.53268,0.372687 0.967,0.434 3.26242,3.356285 5.01428,4.125 0.566,0.6 2.17143,0.810714 2.67143,0.810714 0.5,0 1.067,-0.333 1.7,-1 1.733,-1.7 3.351,-2 4.851,-0.9 1.3,0.934 3.166,2.45 5.6,4.55 0.5,0.4 0.75,0.783 0.75,1.15 0.033,0.433 -0.167,0.816 -0.6,1.15 -0.934,0.667 -1.434,1.467 -1.5,2.4 0,0.6 0.283,1.483 0.85,2.65 0.6,1.1 0.934,2.417 1,3.95 0.1,1.367 0.917,2.15 2.45,2.35 1.233,0.133 2.050003,0.433 2.450003,0.9 0.433,0.5 0.6,1.4 0.5,2.7 -0.101,1.366 -0.317,3.417 -0.65,6.15 -0.133,1.2 -0.850003,1.75 -2.150003,1.65 -1,-0.066 -1.716,0.15 -2.149,0.65 -0.434,0.434 -0.65,1.199 -0.65,2.3 0,1.267 -0.55,2.399 -0.55,2.399 0,0 -3.52287,1.329171 2.36229,-0.03471 0.1,-1.533 0.78571,-1.931286 0.98471,-2.264286 0.233,-0.267 0.95,-0.5 2.150003,-0.7 0.9,-0.199 1.517,-0.383 1.85,-0.55 0.601,-0.333 0.867,-0.866 0.801,-1.6 -0.134,-1.233 -0.067,-2.984 0.199,-5.25 0.301,-2.467 0.434,-4.233 0.4,-5.3 -0.066,-1.467 -0.767,-2.3 -2.1,-2.5 -1.533,-0.1 -2.450003,-0.45 -2.750003,-1.05 -1.101,-2.3 -1.667,-3.567 -1.7,-3.8 -0.434,-1.433 -0.101,-2.783 1,-4.05 0.3,-0.367 0.533,-0.883 0.7,-1.55 0.399,-1 0.233,-1.717 -0.5,-2.15 -1.134,-0.667 -2.567,-1.716 -4.301,-3.15 -2,-1.667 -3.35,-2.767 -4.05,-3.3 -2.1,-1.4 -3.85,-1.233 -5.25,0.5 -1.133,1.2 -2.35,1.316 -3.649,0.35 -0.834,-0.367 -3.30357,-3.214286 -3.30357,-3.214286 m 10.10657,38.612286 c -0.134,-0.232 -0.066,-0.949 0.2,-2.149 l 1,-3.95 c 0.767,-4 0.133,-7.717 -1.9,-11.15 -2.1,-3.5 -5.133,-5.767 -9.1,-6.8 -0.934,-0.433 -1.634,-0.733 -2.101,-0.9 -0.8,-0.233 -1.366,0.034 -1.7,0.8 -0.199,0.633 0.867,1.233 3.2,1.8 3.533,1.033 6.134,3.25 7.8,6.65 1.067,2.1 1.551,4.45 1.45,7.05 -0.1,1.7 -0.99643,5.105429 -1.79643,8.071429 -0.233,0.767 2.94743,0.577571 2.94743,0.577571"
   id="path833-3" />


  <path
   fill-rule="evenodd"
   clip-rule="evenodd"
   d="m 22.678171,11.321762 c 0.4,0.8 1.184,0.817 2.351,0.05 1.366,-0.833 3.533,-1.5499996 6.5,-2.1499996 9.533,-1.9 18.316,0.017 26.35,5.7499996 4.267,3.1 7.066,7.05 8.399998,11.85 2.767,10.5 1.717,19.75 -3.149998,27.75 -0.128,0.211 -0.253,0.419 -0.375,0.625 -0.555,-0.611 -1.13,-1.187 -1.725,-1.725 -0.167,-0.134 -0.317,-0.217 -0.45,-0.25 -0.867,0.667 -0.851,1.45 0.05,2.35 0.389,0.37 0.78,0.729 1.175,1.075 -0.887,1.301 -1.804,2.502 -2.75,3.6 -0.271,-0.452 -0.479,-0.928 -0.625,-1.425 -0.033,-0.134 -0.116,-0.216 -0.25,-0.25 -0.861,0.795 -0.97,1.786 -0.325,2.976 -0.309,0.322 -0.617,0.631 -0.925,0.925 -0.099,-0.423 -0.398,-0.79 -0.899,-1.101 -0.634,-0.434 -1.2,-0.916 -1.7,-1.449 -0.134,-0.167 -0.267,-0.268 -0.4,-0.301 -0.166,0 -0.333,0.033 -0.5,0.101 -0.2,0.066 -0.366,0.167 -0.5,0.3 -0.1,0.1 -0.166,0.217 -0.2,0.35 0.268,0.7 0.768,1.301 1.5,1.801 0.601,0.441 1.275,0.75 2.025,0.925 -1.014,0.905 -2.056,1.705 -3.125,2.399 -0.152,-0.168 -0.336,-0.327 -0.55,-0.475 -0.9,-0.633 -1.434,-1.467 -1.601,-2.5 -0.033,-0.3 -0.183,-0.467 -0.449,-0.5 -1.134,0.533 -1.117,1.434 0.05,2.7 0.476,0.493 0.941,0.985 1.399,1.475 -1.263,0.697 -2.563,1.255 -3.899,1.675 -0.414,0.131 -0.831,0.256 -1.25,0.375 0.022,-0.145 0.022,-0.287 0,-0.425 0,-0.134 -0.017,-0.267 -0.05,-0.399 -1.033,-0.334 -1.7,-1 -2,-2 -0.267,-0.801 -0.7,-1.45 -1.301,-1.95 -0.066,-0.034 -0.133,-0.067 -0.199,-0.101 -0.733,0.801 -0.7,1.834 0.1,3.101 0.573,0.889 1.307,1.58 2.2,2.075 -1.558,0.337 -3.158,0.545 -4.8,0.625 -0.159,-0.493 -0.426,-0.96 -0.801,-1.4 -0.566,-0.666 -1.1,-1.367 -1.6,-2.1 -0.167,-0.234 -0.366,-0.467 -0.6,-0.7 0,-0.134 0.017,-0.267 0.05,-0.4 0,-0.2 -0.05,-0.384 -0.15,-0.55 -0.166,-0.233 -0.35,-0.367 -0.55,-0.4 -1.033,1.134 -0.9,2.316 0.4,3.551 0.679,0.654 1.328,1.338 1.949,2.05 -2.938,0.037 -6.013,-0.321 -9.225,-1.075 -0.014,-0.449 -0.155,-0.924 -0.425,-1.425 -0.4,-0.767 -0.884,-1.5 -1.45,-2.2 -0.2,-0.2 -0.4,-0.316 -0.6,-0.35 -0.801,0.732 -0.884,1.649 -0.25,2.75 0.116,0.203 0.241,0.395 0.375,0.574 -7.041,-2.336 -12.766,-7.494 -17.176,-15.475 -1.3000004,-2.434 -2.1830004,-4.383 -2.6490004,-5.85 -0.533,-1.834 -0.684,-3.851 -0.45,-6.05 0.134,-1.467 0.517,-3.4 1.15,-5.8 2.1330004,-8.066 5.5500004,-14.283 10.2500004,-18.65 l 1.699,-1.7 c 0.534,-0.667 0.534,-1.233 0,-1.7 -0.699,-0.733 -2,-0.167 -3.899,1.7 -3.5,3.6 -6.083,7.35 -7.7500004,11.25 -2.833,6.466 -4.134,12.533 -3.9,18.2 0.067,1.732 0.817,4.133 2.25,7.199 2.8670004,6.5 7.2170004,11.817 13.0500004,15.951 3.233,2.367 7.667,3.934 13.301,4.7 3.133,0.434 6.899,0.384 11.3,-0.15 10.090371,-1.263176 16.764228,-9.620843 20.8,-15.402 2.032998,-2.934 3.366998,-7.035 3.999998,-12.3 0.867,-7.934 0.2,-14.333 -2,-19.2 -2.199998,-4.733 -5.065998,-8.383 -8.599998,-10.95 -9,-6.3999996 -18.733,-8.3329996 -29.2,-5.7999996 -2.867,0.7 -4.8,1.367 -5.8,2 -0.233,0.167 -0.65,0.4 -1.25,0.6999996 -0.434,0.3 -0.551,0.683 -0.351,1.15 z m 13.902,48.199 c -0.7,0 -1.601,-0.184 -2.7,-0.55 -2.91334,-0.496894 -5.15329,-1.615008 -6.301,-2.15 -7.934,-4.333 -11.884,-10.367 -11.851,-18.1 0,-2.5 0.217,-4.6 0.65,-6.3 0.367,-1.733 1.134,-3.8 2.3,-6.2 0.8,-1.633 1.45,-2.534 1.95,-2.7 l 2.399,-1.899 c 1.835,-1.833 4.134,-2.967 6.901,-3.4 2.9,-0.534 7.317,-0.8 13.25,-0.8 6.134,0.133 10.684,3.383 13.65,9.75 3.833,8.2 2.917,16.534 -2.75,25.001 -2.8,4.266 -6.816,6.75 -12.05,7.449 m 1.251,-44.35 h -4.25 c -1.767,-0.1 -3.817,0.033 -6.15,0.4 -2.7,0.633 -4.733,1.067 -6.1,1.3 -6.567,1.267 -10.75,5.867 -12.551,13.8 -0.899,3.967 -0.949,8.5 -0.149,13.6 0.533,3.434 2.684,6.834 6.45,10.201 6.5,5.8 14.05,8.351 22.649,7.65 4.5,-0.434 8.283,-2.417 11.351,-5.95 6.467,-7.467 8.5,-16.101 6.1,-25.9 -0.566,-2.434 -1.65,-4.75 -3.25,-6.95 -1.2,-1.7 -2.9,-3.583 -5.1,-5.65 -1.033,-0.967 -2.467,-1.617 -4.301,-1.95 -2.1,-0.234 -3.666,-0.418 -4.699,-0.551 z m -10.601,51.701 c 0.601,0.8 1.3,1.417 2.101,1.85 0.1,0.066 0.217,0.066 0.35,0 0.367,-0.7 0.217,-1.399 -0.45,-2.1 -0.566,-0.567 -1,-1.167 -1.3,-1.8 -0.1,-0.301 -0.267,-0.467 -0.5,-0.5 -0.934,0.666 -1.001,1.515 -0.201,2.55 z"
   id="path833-30"
   inkscape:connector-curvature="0"
   sodipodi:nodetypes="cccccccccccccccccccccccccccccccccccccccccccccccccccccccccccccccccccccccccccccccccccccccccccccccccccccccccccccc" />


</svg>
